<?xml version="1.0" encoding="UTF-8" standalone="no"?>
<svg
   xmlns:dc="http://purl.org/dc/elements/1.1/"
   xmlns:cc="http://web.resource.org/cc/"
   xmlns:rdf="http://www.w3.org/1999/02/22-rdf-syntax-ns#"
   xmlns:svg="http://www.w3.org/2000/svg"
   xmlns="http://www.w3.org/2000/svg"
   xmlns:xlink="http://www.w3.org/1999/xlink"
   xmlns:sodipodi="http://sodipodi.sourceforge.net/DTD/sodipodi-0.dtd"
   xmlns:inkscape="http://www.inkscape.org/namespaces/inkscape"
   version="1.0"
   width="610.32593"
   height="982.32672"
   viewBox="-18457 -22816 33255 53589"
   id="svg2"
   sodipodi:version="0.32"
   inkscape:version="0.45.1"
   sodipodi:docname="Flag-map of Mississippi.svg"
   inkscape:output_extension="org.inkscape.output.svg.inkscape"
   sodipodi:docbase="C:\Documents and Settings\Administrator\Plocha">
  <metadata
     id="metadata118">
    <rdf:RDF>
      <cc:Work
         rdf:about="">
        <dc:format>image/svg+xml</dc:format>
        <dc:type
           rdf:resource="http://purl.org/dc/dcmitype/StillImage" />
      </cc:Work>
    </rdf:RDF>
  </metadata>
  <defs
     id="defs116">
    <clipPath
       clipPathUnits="userSpaceOnUse"
       id="clipPath5017">
      <use
         transform="matrix(3.9576859e-3,0,0,3.9576859e-3,113.37247,91.255293)"
         xlink:href="#state_outline"
         id="use5019"
         style="fill:#ffffff;stroke:#000000;stroke-width:106.12709045;stroke-linejoin:round;stroke-miterlimit:4;stroke-dasharray:none"
         x="0"
         y="0"
         width="33255"
         height="53589" />
    </clipPath>
  </defs>
  <sodipodi:namedview
     inkscape:window-height="721"
     inkscape:window-width="1024"
     inkscape:pageshadow="2"
     inkscape:pageopacity="0.0"
     guidetolerance="10.0"
     gridtolerance="10.0"
     objecttolerance="10.0"
     borderopacity="1.0"
     bordercolor="#666666"
     pagecolor="#ffffff"
     id="base"
     width="780px"
     height="5358.9px"
     inkscape:zoom="0.56429492"
     inkscape:cx="319.06361"
     inkscape:cy="360.39321"
     inkscape:window-x="-4"
     inkscape:window-y="-4"
     inkscape:current-layer="svg2" />
  <clipPath
     id="state_clip_path">
    <g
       id="state_outline">
      <path
         id="1998"
         d="M 13852,-22816 L 13959,-22612 L 14033,-22517 L 14086,-22448 L 14136,-22359 L 14175,-22264 L 14225,-22145 L 14294,-22036 L 14369,-21963 L 14447,-21879 L 14529,-21814 L 14611,-21773 L 14708,-21727 L 14798,-21705 L 14791,-21611 L 14759,-21189 L 14743,-21033 L 14721,-20770 L 14697,-20448 L 14574,-19274 L 14536,-18914 L 14520,-18782 L 14463,-18210 L 14360,-17168 L 14339,-16921 L 14223,-15510 L 14207,-15317 L 14089,-13893 L 13987,-12739 L 13956,-12399 L 13943,-12255 L 13767,-10622 L 13614,-8967 L 13609,-8908 L 13469,-7307 L 13405,-6573 L 13325,-5660 L 13184,-3965 L 13175,-3869 L 13161,-3718 L 13147,-3536 L 13038,-2325 L 12893,-640 L 12884,-547 L 12819,163 L 12739,1028 L 12601,2646 L 12473,4049 L 12451,4287 L 12305,5924 L 12206,7035 L 12160,7555 L 12123,7945 L 12004,9211 L 11843,10855 L 11774,11576 L 11778,11669 L 11814,12490 L 11863,13328 L 11887,13814 L 11947,14988 L 12036,16629 L 12042,16724 L 12145,18286 L 12245,19894 L 12268,20283 L 12342,21547 L 12344,21576 L 12436,23181 L 12502,24479 L 12520,24836 L 12569,26062 L 12583,26427 L 12585,26461 L 12607,26958 L 12626,27389 L 12657,28103 L 12667,28338 L 12647,28338 L 12621,28327 L 12606,28327 L 12586,28332 L 12565,28347 L 12555,28363 L 12550,28388 L 12550,28403 L 12555,28429 L 12554,28444 L 12554,28464 L 12565,28469 L 12580,28469 L 12600,28459 L 12610,28464 L 12615,28480 L 12615,28495 L 12625,28510 L 12636,28520 L 12646,28541 L 12646,28556 L 12651,28581 L 12645,28596 L 12640,28622 L 12635,28632 L 12635,28642 L 12640,28657 L 12645,28677 L 12655,28688 L 12665,28693 L 12684,28691 L 12691,28762 L 12675,28769 L 12655,28794 L 12639,28809 L 12614,28814 L 12598,28834 L 12588,28839 L 12578,28824 L 12583,28799 L 12583,28768 L 12584,28728 L 12574,28708 L 12558,28682 L 12533,28667 L 12513,28657 L 12487,28672 L 12477,28677 L 12451,28687 L 12406,28702 L 12365,28707 L 12339,28706 L 12324,28701 L 12324,28681 L 12314,28671 L 12289,28671 L 12253,28681 L 12238,28691 L 12227,28701 L 12212,28716 L 12207,28736 L 12207,28777 L 12206,28817 L 12201,28858 L 12181,28893 L 12165,28924 L 12155,28949 L 12145,28964 L 12124,28984 L 12099,29000 L 12073,29015 L 12048,29020 L 12027,29035 L 12012,29050 L 12002,29065 L 11981,29080 L 11945,29095 L 11915,29100 L 11869,29095 L 11803,29095 L 11762,29094 L 11732,29089 L 11696,29074 L 11666,29058 L 11650,29038 L 11630,29023 L 11615,29008 L 11590,28982 L 11585,28972 L 11595,28957 L 11605,28947 L 11615,28931 L 11625,28921 L 11620,28906 L 11615,28896 L 11605,28896 L 11590,28881 L 11590,28850 L 11580,28840 L 11560,28835 L 11544,28835 L 11529,28850 L 11534,28865 L 11544,28886 L 11549,28911 L 11544,28921 L 11534,28926 L 11519,28921 L 11503,28895 L 11483,28875 L 11458,28865 L 11412,28844 L 11376,28834 L 11331,28829 L 11259,28828 L 11203,28838 L 11086,28838 L 11041,28828 L 11000,28827 L 10974,28817 L 10934,28771 L 10919,28741 L 10909,28710 L 10894,28690 L 10873,28670 L 10889,28634 L 10919,28609 L 10950,28599 L 10965,28584 L 10955,28568 L 10930,28563 L 10904,28563 L 10894,28558 L 10864,28563 L 10838,28583 L 10812,28608 L 10792,28613 L 10787,28588 L 10797,28563 L 10803,28537 L 10787,28522 L 10772,28522 L 10752,28532 L 10752,28563 L 10746,28588 L 10736,28588 L 10726,28578 L 10716,28552 L 10711,28532 L 10701,28496 L 10686,28466 L 10676,28440 L 10671,28410 L 10676,28375 L 10697,28344 L 10722,28319 L 10727,28299 L 10717,28278 L 10692,28273 L 10677,28283 L 10641,28303 L 10646,28339 L 10630,28359 L 10625,28379 L 10630,28410 L 10630,28440 L 10620,28471 L 10604,28491 L 10589,28511 L 10574,28521 L 10548,28531 L 10522,28546 L 10502,28567 L 10471,28582 L 10400,28632 L 10349,28662 L 10318,28672 L 10272,28677 L 10216,28667 L 10166,28656 L 10125,28661 L 10089,28661 L 10054,28671 L 10008,28686 L 9967,28701 L 9941,28716 L 9906,28762 L 9875,28787 L 9834,28817 L 9773,28847 L 9727,28873 L 9691,28878 L 9630,28877 L 9549,28872 L 9432,28846 L 9381,28836 L 9325,28810 L 9274,28779 L 9234,28754 L 9198,28718 L 9157,28693 L 9092,28637 L 9041,28591 L 8990,28570 L 8954,28560 L 8919,28530 L 8873,28499 L 8817,28478 L 8751,28448 L 8680,28407 L 8670,28392 L 8670,28381 L 8685,28376 L 8706,28382 L 8762,28382 L 8782,28387 L 8813,28397 L 8838,28407 L 8889,28413 L 8924,28418 L 8955,28433 L 8965,28454 L 8985,28469 L 9006,28464 L 9026,28454 L 9042,28439 L 9047,28429 L 9042,28408 L 9026,28403 L 9001,28398 L 8965,28388 L 8940,28383 L 8920,28377 L 8899,28367 L 8869,28337 L 8849,28326 L 8828,28321 L 8787,28321 L 8752,28316 L 8716,28311 L 8655,28280 L 8589,28239 L 8579,28229 L 8574,28209 L 8564,28198 L 8544,28198 L 8518,28193 L 8493,28178 L 8467,28157 L 8422,28137 L 8391,28122 L 8376,28091 L 8371,28071 L 8351,28030 L 8315,28005 L 8290,27995 L 8280,27979 L 8290,27969 L 8305,27959 L 8336,27964 L 8361,27975 L 8387,28000 L 8407,28015 L 8432,28026 L 8478,28026 L 8499,28016 L 8509,28006 L 8514,27995 L 8504,27990 L 8483,27985 L 8453,27985 L 8407,27954 L 8366,27929 L 8346,27919 L 8341,27893 L 8326,27883 L 8301,27878 L 8280,27888 L 8265,27893 L 8234,27903 L 8219,27913 L 8204,27928 L 8178,27943 L 8168,27938 L 8137,27923 L 8127,27923 L 8117,27933 L 8117,27943 L 8107,27963 L 8096,27973 L 8076,27994 L 8056,28009 L 8035,28004 L 8011,27989 L 8010,27988 L 7974,27988 L 7954,27993 L 7928,27988 L 7883,27983 L 7862,27967 L 7842,27962 L 7822,27947 L 7801,27932 L 7776,27922 L 7740,27921 L 7715,27921 L 7689,27926 L 7669,27931 L 7659,27941 L 7638,27951 L 7618,27951 L 7598,27946 L 7593,27941 L 7593,27916 L 7583,27906 L 7562,27900 L 7537,27900 L 7526,27910 L 7521,27926 L 7511,27946 L 7496,27966 L 7475,27966 L 7450,27971 L 7419,27976 L 7384,27986 L 7363,27996 L 7338,28006 L 7297,28001 L 7277,28001 L 7256,27990 L 7236,27970 L 7211,27970 L 7195,27975 L 7134,27975 L 7119,27980 L 7104,27995 L 7098,28010 L 7098,28020 L 7083,28030 L 7063,28025 L 7053,28000 L 7053,27969 L 7048,27944 L 7033,27934 L 7007,27924 L 6977,27934 L 6946,27933 L 6931,27964 L 6941,27989 L 6941,27999 L 6925,28025 L 6925,28101 L 6940,28131 L 6960,28141 L 6976,28136 L 6996,28121 L 7032,28111 L 7047,28111 L 7078,28101 L 7098,28096 L 7129,28086 L 7159,28086 L 7200,28092 L 7230,28087 L 7256,28092 L 7266,28112 L 7281,28117 L 7296,28117 L 7327,28107 L 7348,28097 L 7373,28087 L 7404,28077 L 7429,28072 L 7465,28072 L 7485,28078 L 7500,28088 L 7521,28098 L 7546,28098 L 7561,28083 L 7597,28058 L 7618,28043 L 7638,28043 L 7674,28028 L 7699,28023 L 7740,28038 L 7755,28063 L 7770,28079 L 7790,28099 L 7821,28099 L 7857,28089 L 7887,28089 L 7923,28094 L 7943,28105 L 7979,28105 L 8014,28100 L 8050,28110 L 8065,28125 L 8075,28136 L 8116,28136 L 8142,28141 L 8167,28151 L 8198,28161 L 8228,28172 L 8233,28187 L 8238,28212 L 8233,28222 L 8223,28238 L 8217,28253 L 8228,28268 L 8238,28278 L 8248,28294 L 8253,28314 L 8253,28334 L 8243,28349 L 8207,28349 L 8181,28344 L 8156,28334 L 8131,28329 L 8100,28323 L 8034,28323 L 8003,28328 L 7973,28328 L 7932,28333 L 7896,28333 L 7856,28327 L 7795,28327 L 7713,28322 L 7642,28316 L 7520,28326 L 7453,28336 L 7367,28346 L 7270,28356 L 7194,28360 L 7148,28365 L 7117,28365 L 7071,28370 L 7036,28380 L 7000,28385 L 6949,28385 L 6893,28390 L 6842,28400 L 6781,28415 L 6694,28435 L 6623,28460 L 6572,28470 L 6501,28479 L 6440,28499 L 6414,28499 L 6384,28514 L 6363,28525 L 6338,28530 L 6297,28540 L 6210,28565 L 6159,28580 L 6118,28600 L 6093,28620 L 6083,28640 L 6072,28655 L 6067,28665 L 6042,28665 L 6037,28675 L 6047,28701 L 6062,28721 L 6072,28741 L 6077,28767 L 6067,28772 L 6057,28767 L 6047,28752 L 6036,28736 L 6021,28721 L 6011,28716 L 6001,28721 L 6001,28746 L 6011,28762 L 6016,28772 L 6016,28782 L 6006,28782 L 5996,28777 L 5980,28767 L 5965,28741 L 5955,28716 L 5955,28690 L 5950,28670 L 5925,28670 L 5899,28685 L 5884,28700 L 5853,28715 L 5818,28730 L 5761,28756 L 5705,28771 L 5644,28806 L 5568,28841 L 5481,28876 L 5415,28906 L 5313,28957 L 5216,28987 L 5160,29007 L 5088,29037 L 5022,29057 L 4971,29072 L 4930,29082 L 4879,29092 L 4854,29097 L 4813,29112 L 4772,29117 L 4716,29142 L 4655,29162 L 4599,29188 L 4563,29208 L 4523,29228 L 4451,29253 L 4375,29283 L 4344,29298 L 4314,29303 L 4283,29308 L 4247,29318 L 4212,29328 L 4161,29333 L 4130,29338 L 4100,29333 L 4084,29328 L 4069,29323 L 4064,29302 L 4059,29262 L 4064,29236 L 4080,29201 L 4080,29181 L 4075,29155 L 4065,29135 L 4060,29104 L 4060,29079 L 4065,29033 L 4075,29018 L 4106,29008 L 4131,29013 L 4167,29008 L 4193,28998 L 4223,28988 L 4254,28989 L 4254,28953 L 4259,28928 L 4269,28907 L 4285,28902 L 4300,28902 L 4320,28897 L 4341,28892 L 4386,28898 L 4417,28908 L 4473,28908 L 4493,28883 L 4473,28857 L 4442,28852 L 4392,28862 L 4305,28862 L 4275,28857 L 4249,28862 L 4229,28846 L 4203,28836 L 4168,28811 L 4147,28795 L 4148,28785 L 4137,28770 L 4132,28750 L 4158,28750 L 4193,28745 L 4244,28730 L 4285,28715 L 4306,28695 L 4301,28679 L 4296,28659 L 4280,28649 L 4255,28654 L 4240,28659 L 4219,28664 L 4184,28669 L 4158,28674 L 4128,28663 L 4107,28648 L 4077,28638 L 4031,28628 L 4006,28628 L 3975,28627 L 3955,28638 L 3929,28653 L 3909,28678 L 3898,28688 L 3878,28688 L 3868,28673 L 3868,28652 L 3873,28632 L 3888,28612 L 3904,28602 L 3919,28592 L 3919,28577 L 3909,28556 L 3894,28531 L 3884,28526 L 3853,28526 L 3823,28531 L 3762,28530 L 3711,28525 L 3660,28535 L 3614,28555 L 3612,28556 L 3578,28570 L 3522,28590 L 3476,28611 L 3466,28621 L 3456,28636 L 3430,28671 L 3405,28697 L 3384,28727 L 3374,28752 L 3369,28762 L 3353,28772 L 3343,28772 L 3328,28777 L 3323,28788 L 3318,28803 L 3302,28818 L 3292,28818 L 3277,28823 L 3267,28843 L 3266,28889 L 3256,28919 L 3271,28939 L 3282,28945 L 3297,28950 L 3317,28940 L 3332,28930 L 3343,28930 L 3348,28950 L 3388,28965 L 3414,28965 L 3450,28930 L 3470,28925 L 3501,28910 L 3531,28890 L 3567,28875 L 3618,28890 L 3643,28926 L 3663,28961 L 3689,29012 L 3709,29047 L 3729,29068 L 3749,29088 L 3759,29134 L 3775,29164 L 3769,29210 L 3754,29256 L 3728,29301 L 3703,29342 L 3652,29377 L 3611,29407 L 3555,29437 L 3514,29453 L 3463,29478 L 3422,29503 L 3376,29538 L 3305,29619 L 3279,29655 L 3259,29685 L 3228,29705 L 3182,29730 L 3141,29766 L 3116,29786 L 3070,29801 L 3024,29801 L 2978,29821 L 2917,29846 L 2902,29851 L 2881,29871 L 2851,29902 L 2825,29952 L 2820,30013 L 2820,30039 L 2840,30059 L 2865,30094 L 2870,30130 L 2870,30160 L 2845,30181 L 2819,30201 L 2768,30241 L 2732,30297 L 2681,30353 L 2650,30378 L 2615,30413 L 2610,30449 L 2604,30489 L 2614,30530 L 2629,30560 L 2645,30596 L 2650,30611 L 2660,30631 L 2650,30637 L 2629,30636 L 2604,30646 L 2583,30667 L 2548,30697 L 2507,30727 L 2471,30763 L 2456,30768 L 2435,30773 L 2415,30768 L 2390,30752 L 2390,30742 L 2420,30727 L 2441,30722 L 2456,30717 L 2466,30702 L 2476,30677 L 2487,30651 L 2487,30631 L 2482,30611 L 2472,30590 L 2461,30580 L 2441,30575 L 2416,30565 L 2395,30560 L 2375,30565 L 2360,30580 L 2329,30580 L 2309,30575 L 2288,30569 L 2273,30569 L 2248,30579 L 2217,30600 L 2207,30625 L 2207,30645 L 2202,30671 L 2196,30686 L 2176,30686 L 2151,30691 L 2115,30685 L 2028,30675 L 1988,30665 L 1962,30665 L 1942,30670 L 1891,30670 L 1853,30668 L 1839,30628 L 1814,30581 L 1779,30545 L 1749,30535 L 1708,30539 L 1673,30552 L 1617,30588 L 1565,30633 L 1518,30667 L 1461,30686 L 1397,30688 L 1367,30678 L 1321,30637 L 1308,30619 L 1280,30581 L 1256,30520 L 1230,30475 L 1201,30423 L 1174,30388 L 1139,30358 L 1112,30335 L 1076,30309 L 1037,30297 L 997,30271 L 981,30246 L 976,30220 L 971,30180 L 977,30139 L 982,30104 L 987,30063 L 982,30028 L 975,29997 L 950,29977 L 920,29961 L 881,29941 L 850,29904 L 830,29880 L 825,29850 L 845,29829 L 862,29818 L 872,29793 L 867,29782 L 842,29762 L 820,29753 L 810,29728 L 818,29690 L 825,29657 L 810,29626 L 794,29614 L 780,29591 L 780,29565 L 785,29530 L 775,29499 L 739,29489 L 730,29495 L 714,29504 L 694,29499 L 689,29479 L 694,29459 L 706,29419 L 730,29342 L 745,29307 L 750,29281 L 760,29263 L 781,29253 L 806,29251 L 822,29241 L 832,29226 L 833,29198 L 822,29180 L 813,29147 L 824,29122 L 827,29104 L 822,29063 L 825,29046 L 827,29018 L 836,28976 L 827,28940 L 807,28901 L 788,28868 L 757,28840 L 726,28825 L 696,28815 L 667,28800 L 642,28769 L 629,28761 L 604,28748 L 579,28718 L 562,28691 L 553,28650 L 559,28610 L 544,28569 L 524,28535 L 488,28510 L 459,28481 L 430,28435 L 420,28404 L 412,28378 L 397,28357 L 382,28337 L 376,28312 L 366,28281 L 346,28256 L 332,28235 L 317,28205 L 312,28164 L 326,28129 L 347,28099 L 362,28068 L 367,28048 L 362,28028 L 347,27997 L 342,27951 L 337,27921 L 318,27885 L 308,27855 L 309,27819 L 305,27773 L 295,27723 L 277,27672 L 261,27646 L 259,27620 L 241,27611 L 221,27591 L 195,27581 L 151,27563 L 124,27540 L 99,27505 L 95,27491 L 89,27474 L 74,27434 L 53,27418 L 33,27413 L 16,27398 L -3,27372 L -29,27362 L -54,27346 L -74,27330 L -79,27300 L -89,27266 L -108,27248 L -145,27245 L -201,27240 L -231,27225 L -245,27215 L -267,27194 L -285,27159 L -315,27143 L -321,27140 L -345,27127 L -379,27113 L -396,27096 L -405,27076 L -409,27032 L -419,26994 L -439,26974 L -454,26978 L -470,26983 L -495,26986 L -516,26977 L -531,26957 L -535,26921 L -534,26881 L -541,26849 L -546,26818 L -561,26778 L -571,26732 L -597,26692 L -632,26661 L -662,26650 L -693,26646 L -718,26644 L -733,26639 L -743,26618 L -738,26598 L -732,26573 L -737,26557 L -749,26550 L -762,26542 L -787,26526 L -802,26516 L -820,26503 L -822,26475 L -789,26453 L -755,26450 L -748,26450 L -725,26446 L -704,26441 L -699,26431 L -697,26402 L -713,26382 L -738,26377 L -774,26382 L -810,26389 L -835,26387 L -866,26357 L -881,26311 L -883,26305 L -896,26280 L -903,26255 L -906,26224 L -895,26199 L -893,26179 L -905,26163 L -928,26148 L -958,26143 L -972,26128 L -968,26112 L -952,26087 L -942,26072 L -947,26052 L -967,26036 L -994,26023 L -1007,26010 L -996,25985 L -981,25975 L -965,25965 L -975,25950 L -1006,25944 L -1020,25918 L -1020,25893 L -1017,25864 L -1039,25842 L -1060,25837 L -1080,25826 L -1080,25806 L -1064,25786 L -1043,25766 L -1021,25753 L -1006,25737 L -986,25716 L -970,25686 L -970,25656 L -985,25635 L -1010,25614 L -1026,25590 L -1029,25548 L -1054,25507 L -1078,25476 L -1097,25448 L -1112,25428 L -1138,25423 L -1158,25423 L -1189,25413 L -1214,25397 L -1245,25392 L -1270,25387 L -1285,25372 L -1281,25361 L -1275,25346 L -1244,25326 L -1224,25316 L -1204,25286 L -1198,25240 L -1193,25174 L -1198,25144 L -1209,25119 L -1211,25093 L -1203,25068 L -1176,25040 L -1166,25021 L -1157,24987 L -1152,24946 L -1157,24926 L -1182,24916 L -1208,24916 L -1228,24901 L -1225,24891 L -1215,24856 L -1213,24850 L -1218,24814 L -1212,24779 L -1193,24747 L -1172,24740 L -1141,24730 L -1121,24725 L -1100,24708 L -1095,24678 L -1084,24665 L -1069,24627 L -1074,24602 L -1064,24561 L -1038,24541 L -1015,24535 L -1009,24510 L -1024,24489 L -1043,24475 L -1054,24450 L -1048,24425 L -1043,24394 L -1048,24372 L -1068,24351 L -1072,24326 L -1058,24303 L -1068,24273 L -1086,24245 L -1096,24224 L -1100,24194 L -1093,24166 L -1084,24133 L -1088,24093 L -1093,24070 L -1088,24034 L -1072,24027 L -1041,24022 L -1021,24013 L -1006,23994 L -999,23973 L -994,23947 L -978,23937 L -958,23938 L -933,23959 L -908,23964 L -884,23959 L -879,23949 L -879,23929 L -843,23893 L -843,23878 L -863,23868 L -894,23868 L -935,23873 L -957,23872 L -967,23857 L -956,23826 L -940,23801 L -914,23797 L -889,23792 L -863,23783 L -838,23772 L -812,23748 L -797,23731 L -792,23706 L -807,23676 L -822,23650 L -830,23621 L -809,23601 L -799,23611 L -771,23620 L -751,23620 L -725,23625 L -698,23639 L -672,23644 L -652,23639 L -656,23609 L -664,23595 L -661,23573 L -650,23553 L -640,23538 L -639,23518 L -653,23509 L -674,23504 L -694,23499 L -709,23478 L -704,23458 L -699,23431 L -693,23406 L -684,23372 L -692,23345 L -702,23319 L -705,23290 L -696,23274 L -675,23274 L -655,23280 L -640,23270 L -640,23260 L -629,23229 L -619,23230 L -599,23245 L -578,23261 L -556,23256 L -535,23246 L -530,23225 L -525,23195 L -520,23170 L -505,23144 L -494,23126 L -494,23109 L -510,23094 L -535,23068 L -560,23053 L -579,23033 L -594,23007 L -599,22982 L -581,22967 L -560,22962 L -524,22957 L -509,22952 L -499,22937 L -509,22916 L -526,22897 L -529,22876 L -524,22835 L -529,22815 L -534,22775 L -524,22759 L -503,22754 L -478,22765 L -442,22775 L -421,22772 L -407,22765 L -401,22750 L -400,22722 L -417,22684 L -432,22658 L -444,22635 L -434,22605 L -411,22598 L -382,22596 L -347,22591 L -321,22582 L -290,22557 L -279,22527 L -284,22511 L -299,22496 L -314,22491 L -334,22480 L -345,22471 L -339,22426 L -327,22400 L -322,22369 L -337,22343 L -377,22292 L -376,22261 L -355,22221 L -334,22196 L -308,22161 L -292,22146 L -267,22122 L -247,22102 L -231,22076 L -216,22046 L -188,22022 L -168,22012 L -134,22016 L -111,22008 L -104,21986 L -109,21960 L -129,21940 L -155,21930 L -175,21904 L -170,21879 L -160,21875 L -139,21849 L -133,21820 L -124,21793 L -118,21758 L -118,21727 L -139,21697 L -159,21661 L -164,21631 L -163,21607 L -163,21600 L -169,21585 L -194,21575 L -225,21585 L -250,21600 L -286,21631 L -322,21656 L -360,21669 L -388,21661 L -398,21625 L -403,21600 L -819,21602 L -1127,21601 L -1653,21599 L -4599,21591 L -5225,21591 L -6032,21592 L -7528,21592 L -7961,21591 L -8122,21591 L -10466,21578 L -10604,21577 L -12839,21547 L -13323,21537 L -13937,21528 L -16284,21493 L -18368,21460 L -18312,21415 L -18271,21394 L -18195,21359 L -18113,21327 L -18108,21325 L -18011,21278 L -17909,21217 L -17830,21159 L -17768,21110 L -17716,21061 L -17670,21010 L -17634,20954 L -17619,20899 L -17616,20849 L -17620,20829 L -17634,20787 L -17660,20727 L -17715,20660 L -17755,20629 L -17802,20600 L -17858,20554 L -17919,20493 L -17981,20417 L -18057,20321 L -18123,20240 L -18174,20169 L -18210,20108 L -18230,20049 L -18235,19984 L -18220,19926 L -18200,19870 L -18155,19827 L -18113,19777 L -18077,19727 L -18035,19682 L -18001,19632 L -17970,19577 L -17945,19501 L -17929,19435 L -17919,19364 L -17939,19283 L -17972,19207 L -18036,19126 L -18118,19030 L -18192,18955 L -18312,18842 L -18362,18807 L -18413,18769 L -18444,18715 L -18457,18662 L -18454,18609 L -18439,18568 L -18415,18536 L -18378,18507 L -18312,18487 L -18261,18478 L -18194,18469 L -18103,18476 L -18036,18487 L -17955,18509 L -17868,18523 L -17791,18539 L -17603,18539 L -17497,18531 L -17373,18488 L -17307,18458 L -17251,18418 L -17203,18379 L -17162,18324 L -17120,18259 L -17088,18184 L -17082,18103 L -17090,18012 L -17108,17952 L -17160,17894 L -17176,17879 L -17215,17851 L -17266,17810 L -17301,17780 L -17326,17765 L -17346,17734 L -17350,17703 L -17365,17683 L -17386,17667 L -17411,17657 L -17436,17636 L -17454,17592 L -17470,17509 L -17473,17433 L -17470,17385 L -17452,17337 L -17430,17297 L -17404,17262 L -17389,17237 L -17393,17223 L -17413,17203 L -17427,17206 L -17434,17206 L -17470,17220 L -17510,17243 L -17542,17265 L -17571,17283 L -17607,17299 L -17622,17294 L -17639,17283 L -17649,17263 L -17664,17212 L -17673,17182 L -17693,17121 L -17717,17049 L -17721,16978 L -17710,16918 L -17683,16858 L -17626,16798 L -17546,16742 L -17495,16706 L -17446,16689 L -17410,16685 L -17380,16695 L -17360,16721 L -17347,16752 L -17346,16792 L -17357,16833 L -17367,16863 L -17372,16887 L -17348,16934 L -17318,16995 L -17269,17112 L -17215,17233 L -17169,17299 L -17148,17334 L -17126,17363 L -17097,17380 L -17044,17395 L -16988,17406 L -16934,17401 L -16855,17372 L -16781,17310 L -16741,17263 L -16710,17203 L -16688,17137 L -16677,17072 L -16683,17021 L -16686,17001 L -16720,16925 L -16755,16864 L -16837,16803 L -16908,16737 L -16975,16661 L -17036,16586 L -17071,16523 L -17102,16413 L -17114,16320 L -17117,16214 L -17107,16100 L -17088,16012 L -17087,15951 L -17086,15896 L -17102,15852 L -17115,15814 L -17140,15783 L -17158,15760 L -17170,15722 L -17168,15685 L -17147,15644 L -17097,15607 L -17061,15587 L -16999,15578 L -16938,15583 L -16923,15585 L -16846,15591 L -16775,15579 L -16709,15559 L -16611,15529 L -16518,15485 L -16408,15432 L -16311,15367 L -16229,15303 L -16147,15233 L -16084,15163 L -16058,15113 L -16042,15073 L -16041,15032 L -16057,14975 L -16085,14925 L -16126,14889 L -16176,14873 L -16273,14876 L -16294,14876 L -16382,14886 L -16468,14916 L -16550,14951 L -16632,14987 L -16703,14997 L -16795,14987 L -16877,14948 L -16927,14906 L -16987,14840 L -17047,14768 L -17077,14717 L -17097,14676 L -17111,14627 L -17106,14571 L -17101,14526 L -17068,14469 L -17021,14399 L -16994,14369 L -16948,14334 L -16902,14315 L -16866,14330 L -16821,14382 L -16779,14430 L -16741,14469 L -16703,14506 L -16655,14536 L -16600,14573 L -16534,14607 L -16448,14643 L -16387,14672 L -16342,14693 L -16301,14704 L -16250,14705 L -16188,14704 L -16154,14687 L -16106,14662 L -16065,14617 L -16035,14583 L -15989,14527 L -15958,14487 L -15938,14416 L -15922,14315 L -15917,14219 L -15922,14107 L -15937,13945 L -15942,13773 L -15942,13662 L -15937,13601 L -15927,13551 L -15909,13507 L -15886,13465 L -15861,13421 L -15830,13392 L -15799,13362 L -15773,13327 L -15757,13292 L -15741,13256 L -15731,13231 L -15700,13217 L -15666,13212 L -15625,13207 L -15533,13197 L -15490,13195 L -15439,13186 L -15380,13182 L -15334,13182 L -15289,13187 L -15253,13203 L -15212,13213 L -15151,13228 L -15093,13232 L -15044,13228 L -14962,13223 L -14931,13223 L -14875,13249 L -14828,13267 L -14783,13274 L -14748,13269 L -14692,13229 L -14656,13188 L -14630,13138 L -14630,13102 L -14640,13057 L -14665,13012 L -14701,12986 L -14739,12979 L -14792,12969 L -14874,12973 L -15007,13006 L -15140,13051 L -15248,13078 L -15416,13096 L -15529,13108 L -15605,13106 L -15636,13096 L -15667,13076 L -15681,13045 L -15686,13009 L -15671,12959 L -15633,12879 L -15564,12713 L -15510,12577 L -15452,12437 L -15425,12336 L -15382,12236 L -15359,12176 L -15323,12115 L -15293,12085 L -15226,12052 L -15221,12050 L -15113,12018 L -15062,12003 L -15016,12004 L -14980,12020 L -14946,12045 L -14920,12075 L -14900,12126 L -14884,12207 L -14869,12293 L -14849,12374 L -14824,12439 L -14799,12478 L -14767,12505 L -14729,12525 L -14696,12531 L -14650,12520 L -14621,12512 L -14579,12490 L -14543,12455 L -14507,12417 L -14482,12359 L -14485,12311 L -14502,12258 L -14555,12199 L -14599,12167 L -14645,12131 L -14686,12111 L -14711,12080 L -14720,12044 L -14715,12004 L -14696,11984 L -14670,11959 L -14616,11930 L -14531,11870 L -14503,11851 L -14415,11787 L -14322,11733 L -14254,11682 L -14183,11624 L -14120,11554 L -14083,11479 L -14052,11429 L -14016,11414 L -13980,11404 L -13923,11390 L -13878,11363 L -13858,11318 L -13865,11260 L -13879,11204 L -13893,11138 L -13908,11082 L -13914,11020 L -13900,10941 L -13878,10883 L -13826,10795 L -13790,10745 L -13743,10696 L -13679,10651 L -13622,10636 L -13566,10626 L -13497,10629 L -13423,10626 L -13333,10617 L -13239,10601 L -13142,10576 L -13040,10541 L -12994,10505 L -12952,10446 L -12921,10376 L -12897,10308 L -12892,10232 L -12901,10149 L -12927,10081 L -12981,10031 L -13072,9989 L -13203,9954 L -13342,9924 L -13453,9908 L -13524,9893 L -13596,9852 L -13642,9796 L -13647,9731 L -13642,9670 L -13607,9611 L -13560,9566 L -13498,9522 L -13437,9513 L -13386,9524 L -13335,9550 L -13294,9595 L -13253,9655 L -13233,9721 L -13191,9785 L -13126,9852 L -13055,9888 L -12969,9925 L -12898,9931 L -12851,9917 L -12855,9851 L -12860,9795 L -12871,9722 L -12882,9623 L -12886,9552 L -12875,9522 L -12855,9507 L -12829,9498 L -12784,9484 L -12722,9464 L -12651,9434 L -12587,9411 L -12521,9382 L -12474,9347 L -12427,9297 L -12406,9247 L -12400,9187 L -12398,9161 L -12395,9124 L -12391,9118 L -12348,9106 L -12304,9089 L -12222,9026 L -12162,8901 L -12125,8668 L -12331,8659 L -12466,8540 L -12600,8468 L -12652,8451 L -12646,8578 L -12579,8695 L -12562,8775 L -12589,8905 L -12611,9084 L -12730,9008 L -12881,8968 L -13082,9008 L -13122,9027 L -13194,9036 L -13304,9028 L -13443,8992 L -13508,8967 L -13550,8944 L -13579,8934 L -13615,8932 L -13651,8927 L -13677,8907 L -13708,8864 L -13726,8805 L -13745,8744 L -13753,8684 L -13749,8632 L -13727,8542 L -13710,8456 L -13696,8386 L -13681,8315 L -13650,8255 L -13609,8214 L -13541,8166 L -13480,8137 L -13369,8083 L -13333,8063 L -13297,8058 L -13262,8068 L -13226,8088 L -13190,8119 L -13148,8127 L -13112,8118 L -13068,8073 L -13022,8018 L -12986,7978 L -12940,7947 L -12889,7932 L -12848,7927 L -12792,7942 L -12752,7972 L -12726,7993 L -12691,8019 L -12664,8024 L -12654,8024 L -12634,7983 L -12628,7958 L -12618,7907 L -12603,7872 L -12572,7832 L -12552,7806 L -12531,7796 L -12506,7796 L -12450,7807 L -12356,7848 L -12265,7895 L -12261,7898 L -12230,7916 L -12205,7954 L -12186,8005 L -12176,8083 L -12164,8136 L -12144,8186 L -12128,8210 L -12102,8231 L -12077,8237 L -12057,8237 L -12031,8222 L -12016,8207 L -11979,8168 L -11958,8143 L -11932,8108 L -11921,8057 L -11924,7979 L -11929,7878 L -11927,7825 L -11916,7769 L -11905,7719 L -11883,7676 L -11862,7641 L -11862,7603 L -11876,7553 L -11891,7507 L -11910,7456 L -11918,7393 L -11918,7335 L -11917,7284 L -11896,7234 L -11867,7191 L -11856,7185 L -11821,7166 L -11764,7171 L -11722,7181 L -11698,7206 L -11678,7252 L -11662,7282 L -11642,7313 L -11617,7320 L -11591,7310 L -11562,7283 L -11524,7261 L -11493,7231 L -11427,7187 L -11322,7107 L -11264,7045 L -11218,6998 L -11191,6957 L -11165,6908 L -11149,6858 L -11138,6802 L -11122,6752 L -11100,6707 L -11059,6647 L -11018,6581 L -10985,6527 L -10956,6465 L -10932,6412 L -10930,6394 L -10926,6356 L -10936,6323 L -10966,6298 L -10978,6301 L -11002,6308 L -11028,6339 L -11043,6369 L -11064,6429 L -11099,6505 L -11151,6585 L -11155,6589 L -11202,6651 L -11258,6692 L -11305,6696 L -11356,6697 L -11411,6671 L -11472,6646 L -11533,6634 L -11605,6630 L -11691,6611 L -11804,6585 L -11915,6561 L -12012,6537 L -12093,6508 L -12131,6468 L -12153,6397 L -12157,6355 L -12140,6295 L -12114,6255 L -12093,6225 L -12054,6170 L -12030,6115 L -12008,6059 L -11992,6013 L -11962,5968 L -11921,5933 L -11875,5907 L -11827,5886 L -11790,5846 L -11764,5801 L -11753,5740 L -11767,5660 L -11793,5579 L -11844,5518 L -11920,5483 L -12007,5473 L -12084,5473 L -12160,5508 L -12237,5553 L -12317,5594 L -12385,5619 L -12455,5617 L -12538,5598 L -12643,5558 L -12773,5481 L -12896,5385 L -12987,5310 L -13052,5228 L -13110,5137 L -13140,5044 L -13154,4938 L -13145,4854 L -13145,4763 L -13129,4686 L -13102,4605 L -13081,4545 L -13044,4485 L -13012,4440 L -12986,4400 L -12961,4380 L -12930,4370 L -12894,4380 L -12854,4405 L -12792,4461 L -12728,4551 L -12669,4648 L -12624,4735 L -12584,4806 L -12548,4860 L -12497,4916 L -12434,4976 L -12343,5033 L -12247,5083 L -12176,5101 L -12129,5104 L -12063,5099 L -12017,5089 L -11991,5069 L -11960,5028 L -11944,4994 L -11948,4939 L -11963,4893 L -11986,4856 L -12017,4811 L -12073,4765 L -12154,4720 L -12159,4717 L -12265,4665 L -12402,4602 L -12509,4570 L -12603,4522 L -12675,4456 L -12736,4390 L -12790,4297 L -12800,4262 L -12754,4213 L -12710,4193 L -12669,4173 L -12633,4153 L -12608,4143 L -12568,4124 L -12511,4098 L -12459,4076 L -12425,4050 L -12413,4041 L -12387,4016 L -12347,3972 L -12327,3936 L -12306,3896 L -12275,3876 L -12236,3852 L -12194,3818 L -12153,3780 L -12111,3733 L -12085,3678 L -12073,3608 L -12071,3538 L -12091,3471 L -12137,3401 L -12193,3341 L -12239,3320 L -12270,3315 L -12321,3325 L -12356,3345 L -12386,3375 L -12402,3425 L -12413,3470 L -12424,3511 L -12445,3566 L -12477,3621 L -12503,3661 L -12566,3719 L -12617,3735 L -12684,3749 L -12771,3777 L -12869,3826 L -12982,3875 L -13098,3900 L -13190,3899 L -13251,3889 L -13299,3864 L -13348,3783 L -13388,3706 L -13447,3589 L -13481,3500 L -13496,3439 L -13491,3379 L -13489,3351 L -13473,3311 L -13442,3281 L -13401,3246 L -13347,3202 L -13296,3177 L -13235,3137 L -13189,3101 L -13148,3076 L -13121,3049 L -13056,2980 L -12979,2910 L -12908,2851 L -12851,2811 L -12800,2789 L -12775,2769 L -12733,2737 L -12698,2708 L -12662,2683 L -12616,2648 L -12555,2587 L -12539,2542 L -12544,2506 L -12554,2441 L -12590,2380 L -12644,2345 L -12689,2314 L -12738,2299 L -12776,2287 L -12837,2276 L -12886,2279 L -12943,2273 L -12975,2274 L -13024,2268 L -13060,2258 L -13122,2240 L -13152,2233 L -13203,2223 L -13270,2222 L -13332,2222 L -13398,2206 L -13479,2172 L -13540,2096 L -13561,2045 L -13576,2000 L -13567,1955 L -13545,1909 L -13520,1863 L -13499,1828 L -13504,1788 L -13519,1747 L -13540,1697 L -13545,1636 L -13540,1562 L -13514,1444 L -13485,1361 L -13463,1313 L -13459,1308 L -13376,1100 L -12973,911 L -12766,719 L -12604,416 L -12646,117 L -12777,-218 L -12781,-236 L -12791,-286 L -12816,-337 L -12852,-393 L -12898,-438 L -12927,-468 L -12969,-494 L -13020,-504 L -13066,-499 L -13126,-482 L -13189,-437 L -13240,-393 L -13297,-318 L -13198,-200 L -13275,-156 L -13256,-80 L -13241,-4 L -13226,51 L -13221,112 L -13221,182 L -13226,233 L -13241,278 L -13262,319 L -13303,359 L -13341,388 L -13398,423 L -13459,447 L -13518,455 L -13577,455 L -13635,449 L -13712,429 L -13788,404 L -13870,353 L -13922,303 L -13962,251 L -13982,191 L -13991,120 L -13974,54 L -13946,-26 L -13921,-66 L -13905,-106 L -13885,-142 L -13869,-192 L -13867,-247 L -13857,-293 L -13833,-334 L -13813,-359 L -13772,-382 L -13741,-411 L -13689,-456 L -13649,-490 L -13601,-545 L -13562,-606 L -13559,-611 L -13532,-655 L -13516,-698 L -13508,-762 L -13504,-788 L -13498,-844 L -13480,-888 L -13444,-929 L -13403,-948 L -13362,-949 L -13306,-950 L -13260,-970 L -13234,-989 L -13194,-1034 L -13163,-1090 L -13137,-1140 L -13127,-1216 L -13132,-1271 L -13147,-1317 L -13179,-1362 L -13229,-1418 L -13290,-1464 L -13400,-1538 L -13469,-1585 L -13525,-1626 L -13607,-1671 L -13692,-1727 L -13786,-1782 L -13837,-1823 L -13857,-1863 L -13872,-1909 L -13877,-1959 L -13877,-2005 L -13867,-2055 L -13837,-2119 L -13805,-2163 L -13769,-2193 L -13703,-2221 L -13662,-2232 L -13616,-2236 L -13555,-2226 L -13500,-2209 L -13385,-2101 L -13252,-2071 L -12936,-2084 L -12835,-2158 L -12782,-2324 L -12746,-2664 L -12825,-3046 L -12818,-3070 L -12807,-3095 L -12781,-3110 L -12756,-3114 L -12720,-3123 L -12689,-3138 L -12628,-3179 L -12563,-3251 L -12510,-3305 L -12459,-3375 L -12438,-3416 L -12408,-3481 L -12392,-3526 L -12382,-3582 L -12377,-3643 L -12389,-3702 L -12402,-3744 L -12428,-3783 L -12469,-3804 L -12525,-3821 L -12571,-3822 L -12632,-3813 L -12668,-3794 L -12714,-3749 L -12742,-3715 L -12746,-3708 L -12805,-3523 L -12881,-3281 L -13007,-3368 L -13045,-3516 L -13101,-3567 L -13123,-3598 L -13139,-3639 L -13149,-3684 L -13149,-3725 L -13160,-3769 L -13190,-3841 L -13230,-3906 L -13248,-3943 L -13266,-3982 L -13278,-4023 L -13286,-4075 L -13290,-4126 L -13291,-4189 L -13293,-4247 L -13291,-4305 L -13291,-4361 L -13284,-4403 L -13276,-4457 L -13256,-4499 L -13235,-4533 L -13204,-4568 L -13146,-4607 L -13094,-4641 L -13050,-4678 L -13020,-4714 L -12973,-4780 L -12937,-4835 L -12897,-4885 L -12871,-4930 L -12845,-4976 L -12825,-5004 L -12794,-5031 L -12743,-5081 L -12679,-5132 L -12630,-5172 L -12594,-5222 L -12553,-5265 L -12522,-5300 L -12490,-5334 L -12466,-5374 L -12462,-5430 L -12466,-5485 L -12465,-5520 L -12476,-5565 L -12489,-5597 L -12507,-5631 L -12537,-5661 L -12578,-5687 L -12656,-5706 L -12712,-5718 L -12753,-5709 L -12785,-5693 L -12803,-5662 L -12824,-5616 L -12834,-5529 L -12855,-5410 L -12860,-5309 L -12860,-5247 L -12870,-5198 L -12881,-5162 L -12895,-5120 L -12916,-5076 L -12942,-5041 L -12978,-5007 L -13061,-4959 L -13139,-4915 L -13234,-4875 L -13330,-4859 L -13412,-4855 L -13515,-4866 L -13592,-4891 L -13651,-4921 L -13706,-4948 L -13736,-4974 L -13771,-5002 L -13797,-5028 L -13822,-5043 L -13853,-5073 L -13868,-5109 L -13878,-5159 L -13868,-5189 L -13854,-5224 L -13817,-5258 L -13781,-5277 L -13745,-5287 L -13668,-5295 L -13602,-5305 L -13519,-5317 L -13446,-5342 L -13159,-5403 L -13020,-5699 L -13100,-5904 L -13490,-6180 L -13566,-6155 L -13560,-5846 L -13501,-5663 L -13634,-5513 L -13898,-5466 L -14117,-5512 L -14095,-5714 L -13787,-5912 L -13633,-6211 L -13634,-6227 L -13631,-6243 L -13626,-6304 L -13639,-6344 L -13658,-6380 L -13689,-6401 L -13754,-6440 L -13844,-6506 L -13855,-6513 L -13925,-6573 L -13999,-6658 L -14060,-6739 L -14060,-6881 L -13999,-6953 L -13779,-6990 L -13557,-7113 L -13327,-7102 L -13173,-7213 L -13127,-7357 L -13173,-7552 L -13410,-7753 L -13609,-7914 L -13756,-7940 L -13932,-7980 L -14015,-8124 L -13997,-8256 L -13830,-8425 L -13552,-8447 L -13394,-8465 L -13381,-8453 L -13346,-8412 L -13301,-8347 L -13234,-8261 L -13182,-8206 L -13147,-8165 L -13112,-8134 L -13081,-8109 L -13020,-8079 L -12979,-8048 L -12945,-8019 L -12892,-7983 L -12850,-7961 L -12805,-7942 L -12764,-7927 L -12712,-7923 L -12677,-7922 L -12605,-7942 L -12563,-7960 L -12527,-7984 L -12485,-8004 L -12447,-8017 L -12382,-8037 L -12363,-8041 L -12252,-8080 L -12190,-8175 L -12225,-8290 L -12308,-8402 L -12348,-8505 L -12501,-8578 L -12632,-8531 L -12848,-8484 L -12886,-8482 L -12963,-8487 L -12991,-8489 L -13050,-8513 L -13111,-8553 L -13152,-8604 L -13168,-8633 L -13244,-8742 L -13227,-8899 L -13212,-9218 L -13081,-9323 L -12980,-9282 L -12861,-9186 L -12692,-9243 L -12397,-9260 L -12388,-9248 L -12347,-9212 L -12301,-9172 L -12220,-9126 L -12173,-9112 L -12113,-9097 L -12107,-9097 L -12051,-9091 L -12000,-9099 L -11994,-9100 L -11918,-9136 L -11877,-9161 L -11828,-9210 L -11791,-9264 L -11785,-9315 L -11795,-9358 L -11818,-9426 L -11861,-9469 L -11921,-9517 L -11955,-9532 L -12106,-9574 L -12310,-9665 L -12492,-9948 L -12542,-10114 L -12527,-10252 L -12426,-10364 L -11934,-10924 L -12087,-11078 L -12661,-11268 L -12686,-11377 L -12651,-11490 L -12022,-11741 L -11824,-11318 L -11658,-11291 L -11521,-11369 L -11542,-11548 L -11643,-11675 L -11731,-11930 L -11470,-11966 L -11073,-11946 L -10816,-12004 L -10776,-12317 L -10664,-12541 L -10645,-12715 L -10752,-12788 L -10944,-12764 L -11063,-12731 L -11295,-12833 L -11427,-13032 L -11469,-13137 L -11468,-13148 L -11417,-13251 L -11006,-13542 L -10854,-13485 L -10641,-13320 L -10382,-13255 L -10341,-13267 L -10303,-13283 L -10264,-13305 L -10238,-13320 L -10201,-13339 L -10175,-13368 L -10143,-13413 L -10108,-13454 L -10077,-13514 L -10058,-13578 L -10057,-13623 L -10067,-13660 L -10101,-13705 L -10151,-13746 L -10197,-13768 L -10266,-13797 L -10317,-13817 L -10374,-13817 L -10451,-13818 L -10615,-13793 L -10698,-13784 L -10760,-13775 L -10814,-13783 L -10872,-13798 L -10958,-13840 L -11029,-13889 L -11108,-13980 L -11172,-14066 L -11207,-14133 L -11228,-14192 L -11238,-14248 L -11238,-14298 L -11223,-14346 L -11196,-14411 L -11171,-14434 L -11145,-14445 L -11110,-14449 L -11074,-14449 L -11038,-14429 L -11006,-14401 L -10956,-14343 L -10897,-14268 L -10837,-14186 L -10778,-14126 L -10732,-14090 L -10670,-14060 L -10605,-14044 L -10554,-14043 L -10501,-14045 L -10466,-14061 L -10425,-14085 L -10386,-14123 L -10358,-14165 L -10332,-14241 L -10311,-14301 L -10300,-14367 L -10299,-14451 L -10297,-14515 L -10262,-14724 L -10154,-14795 L -9988,-14826 L -9798,-14808 L -9793,-14804 L -9758,-14779 L -9727,-14774 L -9687,-14769 L -9651,-14784 L -9614,-14804 L -9578,-14849 L -9542,-14920 L -9517,-14995 L -9501,-15063 L -9491,-15106 L -9475,-15166 L -9466,-15238 L -9470,-15294 L -9473,-15355 L -9490,-15403 L -9505,-15439 L -9536,-15469 L -9576,-15501 L -9613,-15529 L -9648,-15560 L -9667,-15596 L -9687,-15637 L -9686,-15677 L -9675,-15717 L -9658,-15757 L -9628,-15792 L -9592,-15822 L -9566,-15832 L -9525,-15832 L -9489,-15827 L -9452,-15813 L -9381,-15776 L -9305,-15750 L -9300,-15749 L -9229,-15733 L -9224,-15733 L -9156,-15735 L -9106,-15747 L -9044,-15768 L -9004,-15794 L -8976,-15807 L -8972,-15810 L -8935,-15831 L -8904,-15831 L -8884,-15826 L -8863,-15814 L -8854,-15774 L -8854,-15771 L -8984,-15327 L -8912,-15196 L -8715,-15190 L -8677,-15325 L -8738,-15675 L -8680,-15883 L -8575,-15940 L -8482,-15940 L -8177,-16072 L -7898,-16288 L -7823,-16448 L -7827,-16570 L -7921,-16721 L -8021,-16872 L -8020,-16918 L -8027,-16940 L -8037,-17008 L -8042,-17073 L -8037,-17139 L -8030,-17206 L -8004,-17282 L -7955,-17361 L -7919,-17416 L -7878,-17461 L -7824,-17510 L -7816,-17516 L -7756,-17564 L -7678,-17607 L -7621,-17637 L -7585,-17657 L -7578,-17662 L -7558,-17785 L -7661,-18006 L -7706,-18071 L -7749,-18099 L -7753,-18101 L -7799,-18146 L -7830,-18212 L -7866,-18293 L -7879,-18320 L -7902,-18363 L -7921,-18424 L -7944,-18531 L -7957,-18610 L -7961,-18637 L -7966,-18672 L -7967,-18746 L -7964,-18793 L -7962,-18827 L -7958,-18862 L -8003,-19029 L -7984,-19206 L -7712,-19409 L -7694,-19401 L -7647,-19376 L -7612,-19344 L -7609,-19339 L -7582,-19293 L -7566,-19244 L -7569,-19202 L -7575,-19152 L -7592,-19118 L -7631,-19076 L -7674,-19013 L -7709,-18933 L -7716,-18853 L -7701,-18791 L -7670,-18741 L -7622,-18700 L -7588,-18680 L -7532,-18665 L -7485,-18661 L -7440,-18665 L -7388,-18685 L -7329,-18718 L -7272,-18772 L -7198,-18840 L -7132,-18911 L -7078,-18969 L -6999,-19038 L -6921,-19112 L -6880,-19182 L -6859,-19238 L -6849,-19278 L -6849,-19328 L -6854,-19369 L -6878,-19398 L -6923,-19419 L -6966,-19434 L -7066,-19448 L -7163,-19455 L -7233,-19455 L -7363,-19465 L -7494,-19476 L -7547,-19484 L -7595,-19506 L -7653,-19537 L -7724,-19572 L -7755,-19597 L -7781,-19623 L -7794,-19651 L -7806,-19683 L -7811,-19713 L -7811,-19749 L -7800,-19795 L -7780,-19839 L -7758,-19887 L -7721,-19932 L -7684,-19971 L -7663,-19996 L -7642,-20005 L -7611,-20005 L -7549,-20000 L -7539,-20025 L -7539,-20076 L -7554,-20131 L -7569,-20176 L -7590,-20227 L -7605,-20282 L -7615,-20333 L -7610,-20388 L -7594,-20454 L -7558,-20509 L -7511,-20557 L -7445,-20579 L -7374,-20584 L -7328,-20574 L -7297,-20549 L -7271,-20498 L -7241,-20417 L -7215,-20347 L -7205,-20281 L -7202,-20226 L -7200,-20186 L -7209,-20147 L -7230,-20102 L -7273,-20042 L -7314,-19994 L -7351,-19963 L -7380,-19929 L -7396,-19899 L -7395,-19869 L -7375,-19838 L -7334,-19813 L -7278,-19788 L -7222,-19767 L -7151,-19752 L -7064,-19745 L -7003,-19754 L -6914,-19772 L -6843,-19801 L -6780,-19834 L -6739,-19869 L -6707,-19903 L -6685,-19948 L -6679,-19998 L -6683,-20044 L -6709,-20094 L -6742,-20151 L -6775,-20215 L -6831,-20296 L -6895,-20422 L -6918,-20493 L -6922,-20543 L -6927,-20584 L -6920,-20634 L -6907,-20674 L -6882,-20714 L -6851,-20739 L -6830,-20758 L -6804,-20792 L -6799,-20814 L -6809,-20865 L -6845,-20925 L -6866,-20980 L -6890,-21036 L -6925,-21093 L -6980,-21159 L -7013,-21218 L -7033,-21271 L -7042,-21337 L -7039,-21389 L -7027,-21446 L -6997,-21487 L -6956,-21525 L -6894,-21557 L -6838,-21575 L -6782,-21570 L -6714,-21556 L -6663,-21535 L -6628,-21509 L -6598,-21464 L -6577,-21428 L -6557,-21373 L -6537,-21287 L -6506,-21136 L -6440,-20909 L -6418,-20864 L -6402,-20859 L -6374,-20859 L -6333,-20869 L -6315,-20874 L -6302,-20879 L -6263,-20906 L -6221,-20955 L -6184,-21004 L -6153,-21035 L -6117,-21050 L -6097,-21060 L -6054,-21072 L -6018,-21082 L -5987,-21096 L -5953,-21120 L -5907,-21145 L -5816,-21183 L -5774,-21202 L -5743,-21201 L -5738,-21200 L -5722,-21200 L -5702,-21190 L -5687,-21174 L -5658,-21144 L -5610,-21109 L -5574,-21068 L -5542,-21050 L -5513,-21043 L -5481,-21039 L -5455,-21043 L -5436,-21053 L -5405,-21088 L -5390,-21133 L -5385,-21188 L -5394,-21229 L -5405,-21264 L -5398,-21299 L -5389,-21320 L -5366,-21354 L -5339,-21378 L -5308,-21403 L -5261,-21437 L -5209,-21470 L -5158,-21485 L -5102,-21505 L -5059,-21513 L -5018,-21527 L -4953,-21571 L -4898,-21620 L -4855,-21690 L -4824,-21742 L -4809,-21807 L -4804,-21867 L -4803,-21960 L -4824,-22064 L -4839,-22143 L -4859,-22190 L -4894,-22220 L -4987,-22286 L -5101,-22360 L -5227,-22448 L -5314,-22513 L -5377,-22589 L -5411,-22660 L -5415,-22717 L -5115,-22715 L -1547,-22698 L -72,-22696 L 663,-22695 L 1414,-22696 L 3310,-22700 L 3731,-22699 L 4739,-22706 L 6088,-22716 L 6385,-22718 L 7215,-22723 L 7246,-22723 L 8158,-22740 L 8491,-22746 L 9568,-22760 L 10691,-22776 L 11910,-22795 L 12207,-22798 L 12335,-22800 L 13066,-22807 L 13744,-22814 L 13783,-22814 L 13852,-22816 z " />
      <path
         id="2142"
         d="M 8420,28593 L 8374,28568 L 8303,28542 L 8227,28511 L 8135,28455 L 8039,28419 L 8018,28399 L 8064,28389 L 8130,28394 L 8186,28405 L 8247,28415 L 8313,28426 L 8379,28461 L 8440,28497 L 8486,28543 L 8562,28645 L 8567,28660 L 8547,28660 L 8506,28650 L 8486,28634 L 8455,28614 L 8420,28593 z " />
      <path
         id="2148"
         d="M 8704,28757 L 8674,28736 L 8674,28701 L 8694,28665 L 8715,28666 L 8730,28676 L 8745,28696 L 8750,28706 L 8735,28742 L 8704,28757 z " />
      <path
         id="2151"
         d="M 12444,29052 L 12399,29067 L 12332,29067 L 12312,29041 L 12338,29016 L 12368,29006 L 12394,28996 L 12414,28986 L 12440,28991 L 12455,29021 L 12444,29052 z " />
      <path
         id="2154"
         d="M 10921,29425 L 10875,29405 L 10844,29379 L 10824,29349 L 10804,29329 L 10753,29308 L 10753,29288 L 10784,29288 L 10814,29273 L 10860,29288 L 10906,29324 L 10956,29380 L 10982,29426 L 10956,29436 L 10921,29425 z " />
      <path
         id="2160"
         d="M 10103,30005 L 10185,30026 L 10266,30036 L 10332,30062 L 10414,30057 L 10495,30083 L 10637,30104 L 10780,30135 L 10866,30145 L 10973,30141 L 11095,30146 L 11167,30152 L 11228,30157 L 11304,30137 L 11360,30117 L 11401,30107 L 11406,30117 L 11406,30173 L 11385,30204 L 11370,30219 L 11319,30239 L 11283,30249 L 11212,30248 L 11100,30243 L 10978,30237 L 10830,30221 L 10647,30190 L 10510,30169 L 10357,30169 L 10240,30143 L 10133,30117 L 9991,30061 L 9844,29999 L 9641,29958 L 9559,29962 L 9493,29987 L 9406,30007 L 9269,30017 L 9228,30007 L 9192,29986 L 9137,29956 L 9121,29925 L 9137,29915 L 9177,29920 L 9208,29925 L 9259,29921 L 9310,29916 L 9407,29911 L 9514,29881 L 9554,29866 L 9610,29851 L 9641,29841 L 9702,29882 L 9748,29912 L 9778,29933 L 9819,29943 L 9870,29954 L 9961,29954 L 10007,29969 L 10103,30005 z " />
      <path
         id="2161"
         d="M 5980,30222 L 5975,30212 L 5944,30207 L 5903,30207 L 5863,30217 L 5817,30221 L 5771,30211 L 5715,30196 L 5598,30175 L 5466,30164 L 5369,30144 L 5369,30103 L 5380,30103 L 5436,30088 L 5512,30088 L 5573,30094 L 5660,30089 L 5731,30089 L 5797,30105 L 5858,30120 L 5945,30110 L 6011,30085 L 6056,30106 L 6107,30116 L 6143,30111 L 6174,30091 L 6174,30050 L 6179,29984 L 6215,29964 L 6240,29924 L 6286,29888 L 6312,29904 L 6301,29960 L 6281,30020 L 6260,30071 L 6209,30122 L 6199,30187 L 6147,30289 L 6091,30380 L 6004,30486 L 5953,30572 L 5917,30602 L 5897,30612 L 5876,30592 L 5882,30557 L 5897,30521 L 5918,30476 L 5948,30430 L 5984,30379 L 6000,30354 L 5964,30344 L 5928,30344 L 5862,30354 L 5811,30348 L 5816,30313 L 5822,30282 L 5842,30272 L 5908,30267 L 5959,30247 L 5980,30222 z " />
      <path
         id="2162"
         d="M 7950,30022 L 7955,30007 L 7956,29986 L 7961,29961 L 7996,29956 L 8118,29972 L 8139,29982 L 8149,29997 L 8154,30023 L 8139,30048 L 8098,30078 L 8047,30103 L 7985,30123 L 7909,30133 L 7874,30128 L 7874,30113 L 7899,30098 L 7914,30077 L 7930,30057 L 7950,30022 z " />
      <path
         id="2164"
         d="M 7358,30380 L 7272,30405 L 7180,30419 L 7129,30419 L 7089,30399 L 7053,30363 L 7043,30343 L 7053,30328 L 7084,30323 L 7109,30328 L 7140,30338 L 7191,30338 L 7364,30298 L 7440,30273 L 7501,30274 L 7532,30279 L 7545,30300 L 7516,30319 L 7465,30339 L 7430,30354 L 7358,30380 z " />
      <path
         id="2165"
         d="M 12067,30354 L 12107,30329 L 12153,30329 L 12260,30309 L 12382,30284 L 12479,30274 L 12520,30295 L 12571,30305 L 12637,30306 L 12688,30316 L 12708,30346 L 12672,30356 L 12637,30361 L 12586,30376 L 12499,30386 L 12402,30396 L 12316,30421 L 12239,30431 L 12158,30440 L 11995,30429 L 11909,30399 L 11858,30378 L 11766,30347 L 11705,30317 L 11700,30296 L 11711,30271 L 11731,30256 L 11777,30266 L 11828,30287 L 11868,30312 L 11919,30328 L 11980,30348 L 12067,30354 z " />
    </g>
  </clipPath>
  <g
     id="g5105"
     transform="matrix(1.2645461,0,0,1.2645461,14714.823,406.49003)">
    <use
       transform="matrix(0.7829008,0,0,0.7829008,-11670.264,-373.79988)"
       xlink:href="#state_outline"
       id="use18"
       style="fill:#ffffff;stroke:#000000;stroke-width:106.12709045;stroke-linejoin:round;stroke-miterlimit:4;stroke-dasharray:none"
       x="0"
       y="0"
       width="33255"
       height="53589" />
    <g
       clip-path="url(#clipPath5017)"
       id="g4973"
       transform="matrix(197.81782,0,0,197.81782,-34097.359,-18425.723)">
      <rect
         id="rect4975"
         style="font-size:12px;fill:#ffffff;fill-opacity:1;fill-rule:evenodd;stroke-width:1pt"
         y="0"
         x="0"
         height="216"
         width="360" />
      <rect
         id="rect4977"
         style="font-size:12px;fill:#002868;fill-opacity:1;fill-rule:evenodd;stroke-width:1pt"
         y="0"
         x="0"
         height="140"
         width="140" />
      <path
         id="path4979"
         style="fill:#ffffff;fill-opacity:1;fill-rule:evenodd;stroke:none;stroke-opacity:1"
         d="M 76.722175,79.389759 L 70.050582,74.112776 L 63.368914,79.375502 L 66.056401,71.039582 L 59.25536,65.950485 L 67.587911,66.075586 L 70.066305,57.667625 L 72.528618,66.080862 L 80.86139,65.973553 L 74.050632,71.048118 L 76.722175,79.389759 z " />
      <rect
         id="rect4981"
         style="font-size:12px;fill:#002868;fill-opacity:1;fill-rule:evenodd;stroke-width:1pt"
         y="0"
         x="144"
         height="72"
         width="216" />
      <rect
         id="rect4983"
         style="font-size:12px;fill:#bf0a30;fill-opacity:1;fill-rule:evenodd;stroke-width:1pt"
         y="144"
         x="0"
         height="72"
         width="360" />
      <g
         id="g4985">
        <path
           id="use4987"
           style="fill:#ffffff;fill-opacity:1;fill-rule:evenodd;stroke:none;stroke-opacity:1"
           d="M 93.258815,61.674999 L 86.587222,56.398016 L 79.905554,61.660742 L 82.593041,53.324822 L 75.792,48.235725 L 84.124551,48.360826 L 86.602945,39.952865 L 89.065258,48.366102 L 97.39803,48.258793 L 90.587272,53.333358 L 93.258815,61.674999 z " />
        <path
           id="use4989"
           style="fill:#ffffff;fill-opacity:1;fill-rule:evenodd;stroke:none;stroke-opacity:1"
           d="M 111.84782,43.831999 L 105.17622,38.555016 L 98.494554,43.817742 L 101.18204,35.481822 L 94.381,30.392725 L 102.71355,30.517826 L 105.19195,22.109865 L 107.65426,30.523102 L 115.98703,30.415793 L 109.17627,35.490358 L 111.84782,43.831999 z " />
        <path
           id="use4991"
           style="fill:#ffffff;fill-opacity:1;fill-rule:evenodd;stroke:none;stroke-opacity:1"
           d="M 130.43682,25.988999 L 123.76522,20.712016 L 117.08355,25.974742 L 119.77104,17.638822 L 112.97,12.549725 L 121.30255,12.674826 L 123.78095,4.266865 L 126.24326,12.680102 L 134.57603,12.572793 L 127.76527,17.647358 L 130.43682,25.988999 z " />
      </g>
      <g
         transform="matrix(-1,0,0,1,138.438,0)"
         id="use4993">
        <path
           d="M 93.258815,61.674999 L 86.587222,56.398016 L 79.905554,61.660742 L 82.593041,53.324822 L 75.792,48.235725 L 84.124551,48.360826 L 86.602945,39.952865 L 89.065258,48.366102 L 97.39803,48.258793 L 90.587272,53.333358 L 93.258815,61.674999 z "
           style="fill:#ffffff;fill-opacity:1;fill-rule:evenodd;stroke:none;stroke-opacity:1"
           id="path5051" />
        <path
           d="M 111.84782,43.831999 L 105.17622,38.555016 L 98.494554,43.817742 L 101.18204,35.481822 L 94.381,30.392725 L 102.71355,30.517826 L 105.19195,22.109865 L 107.65426,30.523102 L 115.98703,30.415793 L 109.17627,35.490358 L 111.84782,43.831999 z "
           style="fill:#ffffff;fill-opacity:1;fill-rule:evenodd;stroke:none;stroke-opacity:1"
           id="path5053" />
        <path
           d="M 130.43682,25.988999 L 123.76522,20.712016 L 117.08355,25.974742 L 119.77104,17.638822 L 112.97,12.549725 L 121.30255,12.674826 L 123.78095,4.266865 L 126.24326,12.680102 L 134.57603,12.572793 L 127.76527,17.647358 L 130.43682,25.988999 z "
           style="fill:#ffffff;fill-opacity:1;fill-rule:evenodd;stroke:none;stroke-opacity:1"
           id="path5055" />
      </g>
      <g
         transform="translate(-71.93003,69.517)"
         id="use4995">
        <path
           d="M 93.258815,61.674999 L 86.587222,56.398016 L 79.905554,61.660742 L 82.593041,53.324822 L 75.792,48.235725 L 84.124551,48.360826 L 86.602945,39.952865 L 89.065258,48.366102 L 97.39803,48.258793 L 90.587272,53.333358 L 93.258815,61.674999 z "
           style="fill:#ffffff;fill-opacity:1;fill-rule:evenodd;stroke:none;stroke-opacity:1"
           id="path5059" />
        <path
           d="M 111.84782,43.831999 L 105.17622,38.555016 L 98.494554,43.817742 L 101.18204,35.481822 L 94.381,30.392725 L 102.71355,30.517826 L 105.19195,22.109865 L 107.65426,30.523102 L 115.98703,30.415793 L 109.17627,35.490358 L 111.84782,43.831999 z "
           style="fill:#ffffff;fill-opacity:1;fill-rule:evenodd;stroke:none;stroke-opacity:1"
           id="path5061" />
        <path
           d="M 130.43682,25.988999 L 123.76522,20.712016 L 117.08355,25.974742 L 119.77104,17.638822 L 112.97,12.549725 L 121.30255,12.674826 L 123.78095,4.266865 L 126.24326,12.680102 L 134.57603,12.572793 L 127.76527,17.647358 L 130.43682,25.988999 z "
           style="fill:#ffffff;fill-opacity:1;fill-rule:evenodd;stroke:none;stroke-opacity:1"
           id="path5063" />
      </g>
      <g
         id="use4997"
         transform="matrix(-1,0,0,1,210.36803,69.517)">
        <path
           id="path5075"
           style="fill:#ffffff;fill-opacity:1;fill-rule:evenodd;stroke:none;stroke-opacity:1"
           d="M 93.258815,61.674999 L 86.587222,56.398016 L 79.905554,61.660742 L 82.593041,53.324822 L 75.792,48.235725 L 84.124551,48.360826 L 86.602945,39.952865 L 89.065258,48.366102 L 97.39803,48.258793 L 90.587272,53.333358 L 93.258815,61.674999 z " />
        <path
           id="path5077"
           style="fill:#ffffff;fill-opacity:1;fill-rule:evenodd;stroke:none;stroke-opacity:1"
           d="M 111.84782,43.831999 L 105.17622,38.555016 L 98.494554,43.817742 L 101.18204,35.481822 L 94.381,30.392725 L 102.71355,30.517826 L 105.19195,22.109865 L 107.65426,30.523102 L 115.98703,30.415793 L 109.17627,35.490358 L 111.84782,43.831999 z " />
        <path
           id="path5079"
           style="fill:#ffffff;fill-opacity:1;fill-rule:evenodd;stroke:none;stroke-opacity:1"
           d="M 130.43682,25.988999 L 123.76522,20.712016 L 117.08355,25.974742 L 119.77104,17.638822 L 112.97,12.549725 L 121.30255,12.674826 L 123.78095,4.266865 L 126.24326,12.680102 L 134.57603,12.572793 L 127.76527,17.647358 L 130.43682,25.988999 z " />
      </g>
      <path
         id="path4999"
         style="fill:#ffffff;fill-opacity:1;fill-rule:evenodd;stroke-opacity:1"
         transform="matrix(0.38175,0,0,0.66136,95.09098,193.8614)"
         d="M -249.0307,-108.65701 L -249.09228,-265.90873 L -112.8775,-187.3362 L -249.0307,-108.65701 z " />
      <path
         id="use5001"
         style="fill:#ffffff;fill-opacity:1;fill-rule:evenodd;stroke-opacity:1"
         d="M 139.97649,122 L 140,17.999999 L 88.000006,69.964728 L 139.97649,122 z " />
      <path
         id="use5003"
         style="fill:#ffffff;fill-opacity:1;fill-rule:evenodd;stroke-opacity:1"
         d="M 18,0.023506524 L 122,-1.641163e-006 L 70.035269,51.999991 L 18,0.023506524 z " />
      <path
         id="use5005"
         style="fill:#ffffff;fill-opacity:1;fill-rule:evenodd;stroke-opacity:1"
         d="M 122,139.97649 L 17.999999,140 L 69.964728,88.000006 L 122,139.97649 z " />
      <path
         id="path5007"
         style="fill:#bf0a30;fill-opacity:1;fill-rule:evenodd;stroke-opacity:1"
         transform="matrix(0.337702,0,0,0.585049,84.11896,179.5697)"
         d="M -249.0307,-108.65701 L -249.09228,-265.90873 L -112.8775,-187.3362 L -249.0307,-108.65701 z " />
      <path
         id="use5009"
         style="fill:#bf0a30;fill-opacity:1;fill-rule:evenodd;stroke-opacity:1"
         d="M 23.999975,0.020794237 L 115.99994,-1.4517988e-006 L 70.031156,46.000002 L 23.999975,0.020794237 z " />
      <path
         id="use5011"
         style="fill:#bf0a30;fill-opacity:1;fill-rule:evenodd;stroke-opacity:1"
         d="M 139.97921,23.999975 L 140,115.99994 L 93.999998,70.031156 L 139.97921,23.999975 z " />
      <path
         id="use5013"
         style="fill:#bf0a30;fill-opacity:1;fill-rule:evenodd;stroke-opacity:1"
         d="M 115.99998,139.97921 L 24.000018,140 L 69.968798,93.999998 L 115.99998,139.97921 z " />
    </g>
  </g>
</svg>
